<svg height="480pt" viewBox="-5 0 480 480" width="480pt" xmlns="http://www.w3.org/2000/svg"><path d="m362.667969 458.667969h-256c-58.800781 0-106.667969-47.867188-106.667969-106.667969v-96h469.332031v96c0 58.800781-47.867187 106.667969-106.664062 106.667969zm-341.335938-181.335938v74.667969c0 47.066406 38.269531 85.332031 85.335938 85.332031h256c47.066406 0 85.332031-38.265625 85.332031-85.332031v-74.667969zm0 0"/><path d="m128 448h21.332031v32h-21.332031zm0 0"/><path d="m320 448h21.332031v32h-21.332031zm0 0"/><path d="m85.332031 266.667969h-21.332031v-192c0-41.203125 33.464844-74.667969 74.667969-74.667969 41.199219 0 74.664062 33.464844 74.664062 74.667969v10.664062h-21.332031v-10.664062c0-29.46875-23.867188-53.335938-53.332031-53.335938-29.46875 0-53.335938 23.867188-53.335938 53.335938zm0 0"/><path d="m277.332031 170.667969h-149.332031v-21.335938c0-41.199219 33.464844-74.664062 74.667969-74.664062 41.199219 0 74.664062 33.464843 74.664062 74.664062zm-128-21.335938h106.667969c0-29.464843-23.867188-53.332031-53.332031-53.332031-29.46875 0-53.335938 23.867188-53.335938 53.332031zm0 0"/></svg>