<svg id="outline" height="512" viewBox="0 0 340 340" width="512" xmlns="http://www.w3.org/2000/svg"><path d="m328.225 235.659v-96.206a3.482 3.482 0 0 0 -3.482-3.482h-42.166v-27.535h15.151a3.482 3.482 0 0 0 3.4-4.227l-7.81-35.623a11.127 11.127 0 0 0 -10.806-8.694h-21.485a11.129 11.129 0 0 0 -10.806 8.693l-7.81 35.624a3.482 3.482 0 0 0 3.4 4.227h15.152v27.535h-23.237a3.482 3.482 0 0 0 0 6.964h83.535v29.784h-49.49a3.482 3.482 0 0 0 0 6.964h49.49v29.784h-42.918a3.482 3.482 0 1 0 0 6.963h17.257a3.436 3.436 0 0 0 .914.385c14.98 3.665 13.829 17.9 13.775 18.488a3.481 3.481 0 0 0 3.463 3.838h10.989a3.482 3.482 0 0 0 3.484-3.482zm-71.2-165.582a4.124 4.124 0 0 1 4-3.222h21.487a4.124 4.124 0 0 1 4 3.222l6.882 31.395h-43.254zm10.9 38.359h7.687v27.535h-7.687zm49.325 123.741a24.638 24.638 0 0 0 -7.105-15.747h11.116v15.747z"/><path d="m15.257 280.108h14.2a3.487 3.487 0 0 0 3.463-3.123c.108-1.025 2.883-25.158 23.841-29.951.114-.026.216-.073.324-.109h163.498c.1.031.187.074.288.1 21.007 4.766 23.787 28.937 23.894 29.957a3.481 3.481 0 0 0 3.464 3.13h14.2a3.481 3.481 0 0 0 3.482-3.481v-33.188-43.182a28.383 28.383 0 0 0 -7.316-18.988c-11.544-12.845-27.375-23.182-35.473-28.037a12.917 12.917 0 0 0 4.068-9.405 22.967 22.967 0 0 0 -7.438-16.918v-19.3a19.686 19.686 0 0 0 -19.664-19.664h-122.488a19.686 19.686 0 0 0 -19.663 19.664v19.3a22.964 22.964 0 0 0 -7.437 16.918 12.917 12.917 0 0 0 4.068 9.405c-8.1 4.855-23.929 15.192-35.473 28.037a28.385 28.385 0 0 0 -7.316 18.988v43.181 33.184a3.481 3.481 0 0 0 3.478 3.482zm243.694-40.147h-240.212v-22.533h240.212zm-232.457 33.184h-7.755v-26.22h22.523c-10.093 8.108-13.627 20.454-14.768 26.22zm224.7 0c-1.14-5.766-4.674-18.112-14.767-26.22h22.522v26.22zm-36.964-123.313h-71.9v-5.007a18.684 18.684 0 0 1 17.481-18.932c.366-.019.737-.029 1.115-.029h30.208.147c.116-.006 11.4-.428 20.1 3.707a15.789 15.789 0 0 1 8.852 14.262 6.008 6.008 0 0 1 -6.003 5.999zm-136.63-54.915h122.492a12.714 12.714 0 0 1 12.7 12.7v14.966c-9.6-3.991-20.581-3.721-21.727-3.682h-30.142q-.746 0-1.464.037a25.226 25.226 0 0 0 -20.614 12.756 25.223 25.223 0 0 0 -20.611-12.756q-.721-.038-1.467-.037h-30.141c-1.144-.039-12.127-.31-21.728 3.682v-14.966a12.714 12.714 0 0 1 12.702-12.7zm-11.287 34.652c7.206-3.426 16.266-3.72 19.164-3.72.584 0 .917.012.936.013h.146 30.208q.567 0 1.117.029a18.683 18.683 0 0 1 17.479 18.932v5.007h-71.9a6.008 6.008 0 0 1 -6-6 15.788 15.788 0 0 1 8.85-14.261zm-42.043 56.359c13.578-15.108 34.22-27 38.139-29.186.348.028.7.053 1.052.053h150.769c.355 0 .7-.025 1.052-.053 3.919 2.187 24.561 14.078 38.138 29.186a21.429 21.429 0 0 1 5.531 14.333v10.2h-240.212v-10.2a21.438 21.438 0 0 1 5.531-14.333z"/><circle cx="280.236" cy="156.997" r="3.482"/><circle cx="280.236" cy="195.404" r="3.482"/></svg>