<svg xmlns="http://www.w3.org/2000/svg" version="1.1" xmlns:xlink="http://www.w3.org/1999/xlink" width="512" height="512" x="0" y="0" viewBox="0 0 512 512" style="enable-background:new 0 0 512 512" xml:space="preserve" class=""><g><path d="M511.986 136.467a8.396 8.396 0 0 0-.581-2.874 8.04 8.04 0 0 0-.318-.738 8.441 8.441 0 0 0-1.396-2.071c-.099-.108-.167-.235-.272-.337a8.49 8.49 0 0 0-1.995-1.47l-179.2-93.867a8.523 8.523 0 0 0-7.858-.033L4.633 197.209a8.466 8.466 0 0 0-2.034 1.491c-.119.116-.198.257-.31.379a8.438 8.438 0 0 0-1.37 2.032 8.05 8.05 0 0 0-.321.729A8.42 8.42 0 0 0 0 204.768l.003.02-.003.013v170.667a8.529 8.529 0 0 0 4.575 7.558l179.2 93.867c.361.166.732.307 1.113.42.23.082.449.196.684.258.702.19 1.425.29 2.152.296l.004-.001.004.001.01-.003a8.52 8.52 0 0 0 3.56-.859c.105-.048.226-.027.33-.08l315.733-162.133a8.533 8.533 0 0 0 4.633-7.592V136.534l-.012-.067zM179.2 455.232 17.067 370.305V218.902L179.2 303.829v151.403zm8.571-166.177L27.067 204.876 324.229 52.28l160.704 84.179-297.162 152.596zm307.162 12.933L196.267 455.359V303.88l298.667-153.37v151.478z" fill="#ffffff" opacity="1" data-original="#000000"></path><path d="M170.667 187.734c-29.188 0-51.2 12.842-51.2 29.867s22.013 29.867 51.2 29.867 51.2-12.842 51.2-29.867-22.013-29.867-51.2-29.867zm0 42.667c-21.175 0-34.133-8.287-34.133-12.8s12.958-12.8 34.133-12.8 34.133 8.287 34.133 12.8-12.958 12.8-34.133 12.8zM260.267 140.801c-29.188 0-51.2 12.842-51.2 29.867s22.013 29.867 51.2 29.867 51.2-12.842 51.2-29.867-22.013-29.867-51.2-29.867zm0 42.666c-21.175 0-34.133-8.287-34.133-12.8 0-4.512 12.958-12.8 34.133-12.8 21.175 0 34.133 8.288 34.133 12.8 0 4.513-12.958 12.8-34.133 12.8zM349.867 93.867c-29.188 0-51.2 12.842-51.2 29.867s22.013 29.867 51.2 29.867 51.2-12.842 51.2-29.867-22.013-29.867-51.2-29.867zm0 42.667c-21.175 0-34.133-8.287-34.133-12.8s12.958-12.8 34.133-12.8S384 119.221 384 123.734s-12.958 12.8-34.133 12.8z" fill="#ffffff" opacity="1" data-original="#000000"></path></g></svg>