<svg xmlns="http://www.w3.org/2000/svg" version="1.1" xmlns:xlink="http://www.w3.org/1999/xlink" width="512" height="512" x="0" y="0" viewBox="0 0 512 512" style="enable-background:new 0 0 512 512" xml:space="preserve" class=""><g><path d="M314.355 461.08a8 8 0 0 1-8 8h-101.57a8 8 0 0 1 0-16h101.57a8 8 0 0 1 8 8zm91.02-416.91v423.67c0 24.35-21.59 44.16-48.12 44.16h-202.51c-26.54 0-48.12-19.81-48.12-44.16V44.17c0-24.35 21.58-44.17 48.12-44.17h202.51c26.53 0 48.12 19.82 48.12 44.17zm-16 0c0-15.53-14.41-28.17-32.12-28.17h-47.57v17.49a8 8 0 0 1-8 8h-96.67a8 8 0 0 1-8-8V16h-42.27c-17.72 0-32.12 12.64-32.12 28.17v423.67c0 15.53 14.4 28.16 32.12 28.16h202.51c17.71 0 32.12-12.63 32.12-28.16z" fill="#36454f" opacity="1" data-original="#000000" class=""></path></g></svg>