<svg xmlns="http://www.w3.org/2000/svg" version="1.1" xmlns:xlink="http://www.w3.org/1999/xlink" width="512" height="512" x="0" y="0" viewBox="0 0 511.999 511.999" style="enable-background:new 0 0 512 512" xml:space="preserve" class=""><g><path d="M502.736 0H354.821a9.264 9.264 0 0 0 0 18.528h40.733v80.167h-179.25V18.528H323.94A9.264 9.264 0 0 0 323.941 0H9.264A9.264 9.264 0 0 0 0 9.264V502.736A9.264 9.264 0 0 0 9.264 512h493.471a9.264 9.264 0 0 0 9.264-9.264V9.264C512 4.148 507.852 0 502.736 0zM314.222 117.223H493.47v80.166H373.348a9.264 9.264 0 0 0 0 18.528h22.206v80.166h-179.25v-80.166h126.163a9.264 9.264 0 0 0 0-18.528h-28.245v-80.166zM493.471 314.61v80.167H314.222V314.61h179.249zM295.694 117.223v80.166H116.446v-80.166h179.248zM18.528 18.528h179.248v80.167H18.528V18.528zm0 98.695h79.39v80.166h-79.39v-80.166zm0 98.695h179.248v80.166H18.528v-80.166zm0 98.692h79.39v80.167h-79.39V314.61zm179.248 178.861H18.528v-80.166h133.719a9.264 9.264 0 0 0 0-18.528h-35.801V314.61h179.248v80.167H183.127a9.264 9.264 0 0 0 0 18.528h14.649v80.166zm197.778 0h-179.25v-80.166h179.25v80.166zm97.918.001h-79.39v-80.166h79.39v80.166zm0-197.39h-79.39v-80.166h79.39v80.166zm0-197.387h-79.39V18.528h79.39v80.167z" fill="#ffffff" opacity="1" data-original="#000000" class=""></path></g></svg>