<svg xmlns="http://www.w3.org/2000/svg" version="1.1" xmlns:xlink="http://www.w3.org/1999/xlink" width="512" height="512" x="0" y="0" viewBox="0 0 24 24" style="enable-background:new 0 0 512 512" xml:space="preserve" class=""><g><path d="M20.5 20a.767.767 0 0 1-.242-.04L.508 13.21a.754.754 0 0 1-.506-.653.753.753 0 0 1 .4-.722l22.5-11.75a.752.752 0 0 1 1.09.776l-2.75 18.5A.75.75 0 0 1 20.5 20zM2.646 12.355l17.244 5.894 2.401-16.152z" fill="#36454f" opacity="1" data-original="#000000"></path><path d="M9.5 23a.747.747 0 0 1-.75-.75V15.5c0-.189.072-.373.201-.512L22.701.238a.75.75 0 1 1 1.098 1.024L10.25 15.795v4.168l2.503-3.407a.751.751 0 0 1 1.209.889l-3.857 5.25A.755.755 0 0 1 9.5 23z" fill="#36454f" opacity="1" data-original="#000000"></path></g></svg>