<svg xmlns="http://www.w3.org/2000/svg" version="1.1" xmlns:xlink="http://www.w3.org/1999/xlink" width="512" height="512" x="0" y="0" viewBox="0 0 64 64" style="enable-background:new 0 0 512 512" xml:space="preserve" class=""><g><g data-name="Layer 81"><path d="M57.29 4.71h-12.5a2 2 0 0 0 0 4h10.5v10.5a2 2 0 0 0 4 0V6.71a2 2 0 0 0-2-2zM19.21 4.71H6.71a2 2 0 0 0-2 2v12.5a2 2 0 0 0 4 0V8.71h10.5a2 2 0 0 0 0-4zM19.21 55.29H8.71v-10.5a2 2 0 0 0-4 0v12.5a2 2 0 0 0 2 2h12.5a2 2 0 0 0 0-4zM57.29 42.79a2 2 0 0 0-2 2v10.5h-10.5a2 2 0 0 0 0 4h12.5a2 2 0 0 0 2-2v-12.5a2 2 0 0 0-2-2z" fill="#ffffff" opacity="1" data-original="#000000"></path></g></g></svg>