<?xml version="1.0" encoding="iso-8859-1"?>
<!-- Generator: Adobe Illustrator 19.0.0, SVG Export Plug-In . SVG Version: 6.00 Build 0)  -->
<svg version="1.1" id="Capa_1" xmlns="http://www.w3.org/2000/svg" xmlns:xlink="http://www.w3.org/1999/xlink" x="0px" y="0px"
	 viewBox="0 0 512 512" style="enable-background:new 0 0 512 512;" xml:space="preserve">
<g>
	<g>
		<g>
			<path d="M162.133,85.333c-4.713,0-8.533,3.821-8.533,8.533v153.6c0,4.713,3.821,8.533,8.533,8.533s8.533-3.821,8.533-8.533
				v-153.6C170.667,89.154,166.846,85.333,162.133,85.333z"/>
			<path d="M366.933,0H145.067c-14.117,0-25.6,11.483-25.6,25.6v435.2c0,14.117,11.483,25.6,25.6,25.6v8.533
				c0,9.413,7.654,17.067,17.067,17.067h34.133c9.413,0,17.067-7.654,17.067-17.067V486.4h85.333v8.533
				c0,9.413,7.654,17.067,17.067,17.067h34.133c9.413,0,17.067-7.654,17.067-17.067V486.4c14.117,0,25.6-11.483,25.6-25.6V25.6
				C392.533,11.483,381.05,0,366.933,0z M162.133,494.933V486.4h34.138l0.008,8.533H162.133z M315.733,494.933V486.4h34.138
				l0.008,8.533H315.733z M375.467,460.8c0,4.704-3.829,8.533-8.533,8.533H358.4h-51.2H204.8h-51.2h-8.533
				c-4.704,0-8.533-3.829-8.533-8.533V341.333h238.933V460.8z M375.467,324.267H136.533V25.6c0-4.704,3.829-8.533,8.533-8.533
				h221.867c4.704,0,8.533,3.829,8.533,8.533V324.267z"/>
		</g>
	</g>
</g>
<g>
</g>
<g>
</g>
<g>
</g>
<g>
</g>
<g>
</g>
<g>
</g>
<g>
</g>
<g>
</g>
<g>
</g>
<g>
</g>
<g>
</g>
<g>
</g>
<g>
</g>
<g>
</g>
<g>
</g>
</svg>
