<svg enable-background="new 0 0 512 512" viewBox="0 0 512 512" xmlns="http://www.w3.org/2000/svg"><g id="_x30_1_Sofa"><g><path d="m468.103 149.138c-11.219 0-21.393 4.556-28.773 11.912v-26.472c0-17.366-14.127-31.493-31.493-31.493h-122.804-.757c-10.428 0-19.661 5.115-25.395 12.945-5.735-7.83-14.967-12.945-25.395-12.945h-122.805-.757c-17.366 0-31.493 14.127-31.493 31.493v.757 25.715c-7.38-7.356-17.553-11.912-28.773-11.912-22.485 0-40.777 18.293-40.777 40.777v140.237c0 20.917 17.018 37.936 37.936 37.936h34.173v29.609c0 5.54 4.506 10.047 10.047 10.047h29.437c5.54 0 10.047-4.506 10.047-10.047v-29.609h256.721v29.609c0 5.54 4.506 10.047 10.047 10.047h29.437c5.538 0 10.044-4.506 10.044-10.047v-29.609h34.175c20.917 0 37.936-17.018 37.936-37.936v-140.237c-.001-22.484-18.294-40.777-40.778-40.777zm-377.477 145.546v-4.459c0-10.009 8.144-18.152 18.152-18.152h125.853c10.009 0 18.152 8.144 18.152 18.152v4.459zm174.352 0v-4.459c0-10.009 8.144-18.152 18.152-18.152h125.853c10.009 0 18.152 8.144 18.152 18.152v4.459zm162.157-28.721c-5.069-3.803-11.342-6.086-18.152-6.086h-125.853c-6.81 0-13.083 2.283-18.152 6.086v-90.987h162.157zm-174.352 0c-5.069-3.803-11.342-6.086-18.152-6.086h-125.853c-6.81 0-13.083 2.283-18.152 6.086v-90.987h162.157zm155.054-150.683c10.64 0 19.298 8.658 19.298 19.298v28.204h-162.157v-27.446c0-11.059 8.996-20.055 20.055-20.055h122.804zm-174.352 0c10.64 0 19.298 8.658 19.298 19.298v.757 27.446h-162.157v-27.446c0-11.059 8.996-20.055 20.055-20.055zm-115.161 280.268h-25.14v-27.46h25.14zm306.25 0h-25.138v-27.46h25.138zm72.111-65.396c0 14.193-11.547 25.741-25.741 25.741-54.068 0-362.168 0-424.128 0-14.193 0-25.741-11.547-25.741-25.741v-140.237c0-15.761 12.822-28.582 28.582-28.582s28.585 12.822 28.585 28.582v110.866c0 3.325 2.896 6.279 6.286 6.279h348.704c3.391 0 6.286-2.955 6.286-6.279v-110.866c0-15.761 12.824-28.582 28.585-28.582s28.582 12.822 28.582 28.582z"/></g></g><g id="Layer_1"/></svg>