<?xml version="1.0" encoding="UTF-8" standalone="no"?>
<!-- Created with Inkscape (http://www.inkscape.org/) -->

<svg
   version="1.1"
   id="svg9"
   xml:space="preserve"
   width="682.66669"
   height="682.66669"
   viewBox="0 0 682.66669 682.66669"
   xmlns="http://www.w3.org/2000/svg"
   xmlns:svg="http://www.w3.org/2000/svg"><defs
     id="defs13"><clipPath
       clipPathUnits="userSpaceOnUse"
       id="clipPath23"><path
         d="M 0,512 H 512 V 0 H 0 Z"
         id="path21" /></clipPath></defs><g
     id="g15"
     transform="matrix(1.3333333,0,0,-1.3333333,0,682.66667)"><g
       id="g17"><g
         id="g19"
         clip-path="url(#clipPath23)"><g
           id="g25"
           transform="translate(331.5527,181.0312)"><path
             d="m 0,0 c -14.532,0 -26.354,-11.822 -26.354,-26.354 v -30.392 h 52.708 v 30.392 C 26.354,-11.822 14.532,0 0,0 Z"
             style="fill:none;stroke:#000000;stroke-width:15;stroke-linecap:round;stroke-linejoin:round;stroke-miterlimit:10;stroke-dasharray:none;stroke-opacity:1"
             id="path27" /></g><g
           id="g29"
           transform="translate(205.8638,181.0312)"><path
             d="m 0,0 c -14.532,0 -26.354,-11.822 -26.354,-26.354 v -30.392 h 52.708 v 30.392 C 26.354,-11.822 14.531,0 0,0 Z"
             style="fill:none;stroke:#000000;stroke-width:15;stroke-linecap:round;stroke-linejoin:round;stroke-miterlimit:10;stroke-dasharray:none;stroke-opacity:1"
             id="path31" /></g><g
           id="g33"
           transform="translate(204.6494,217.5103)"><path
             d="m 0,0 c -34.405,-0.653 -61.63,-29.475 -61.63,-63.887 v -29.338 h 36.49 v 29.745 c 0,14.271 11.076,26.442 25.337,26.981 14.992,0.568 27.371,-11.464 27.371,-26.334 v -141.529 c 0,-3.119 2.529,-5.648 5.649,-5.648 H 58.41 c 3.119,0 5.649,2.529 5.649,5.648 V -62.833 C 64.059,-27.776 35.206,0.667 0,0 Z"
             style="fill:none;stroke:#000000;stroke-width:15;stroke-linecap:round;stroke-linejoin:round;stroke-miterlimit:10;stroke-dasharray:none;stroke-opacity:1"
             id="path35" /></g><g
           id="g37"
           transform="translate(354.4223,124.2852)"><path
             d="M 0,0 H -85.715 V -34.058 H 0 c 9.405,0 17.029,7.625 17.029,17.029 C 17.029,-7.624 9.405,0 0,0 Z"
             style="fill:none;stroke:#000000;stroke-width:15;stroke-linecap:round;stroke-linejoin:round;stroke-miterlimit:10;stroke-dasharray:none;stroke-opacity:1"
             id="path39" /></g><g
           id="g41"
           transform="translate(354.4223,56.1699)"><path
             d="M 0,0 H -85.715 V -34.058 H 0 c 9.405,0 17.029,7.625 17.029,17.029 C 17.029,-7.624 9.405,0 0,0 Z"
             style="fill:none;stroke:#000000;stroke-width:15;stroke-linecap:round;stroke-linejoin:round;stroke-miterlimit:10;stroke-dasharray:none;stroke-opacity:1"
             id="path43" /></g><g
           id="g45"
           transform="translate(330.3379,217.5103)"><path
             d="m 0,0 c -34.406,-0.653 -61.63,-29.476 -61.63,-63.888 v -29.337 h 36.49 v 29.745 c 0,14.272 11.076,26.442 25.338,26.982 14.993,0.566 27.371,-11.466 27.371,-26.335 v -30.751 c 7.733,-1.609 13.544,-8.459 13.544,-16.67 0,-8.21 -5.811,-15.06 -13.544,-16.669 V -161.7 c 7.733,-1.609 13.544,-8.459 13.544,-16.669 0,-8.21 -5.811,-15.061 -13.544,-16.67 v -9.323 c 0,-3.119 2.529,-5.648 5.649,-5.648 h 25.193 c 3.12,0 5.649,2.529 5.649,5.648 V -62.833 C 64.06,-27.776 35.207,0.667 0,0 Z"
             style="fill:none;stroke:#000000;stroke-width:15;stroke-linecap:round;stroke-linejoin:round;stroke-miterlimit:10;stroke-dasharray:none;stroke-opacity:1"
             id="path47" /></g><g
           id="g49"
           transform="translate(366.7827,334.0913)"><path
             d="m 0,0 c -11.989,0.417 -23.835,5.709 -32.266,15.895 -1.909,2.307 -5.377,2.307 -7.286,0 -17.598,-21.264 -50.017,-21.232 -67.588,0 -1.909,2.307 -5.376,2.307 -7.286,0 -17.571,-21.232 -49.989,-21.264 -67.587,0 -1.91,2.307 -5.377,2.307 -7.286,0 C -197.729,5.709 -209.577,0.417 -221.564,0"
             style="fill:none;stroke:#000000;stroke-width:15;stroke-linecap:round;stroke-linejoin:round;stroke-miterlimit:10;stroke-dasharray:none;stroke-opacity:1"
             id="path51" /></g><g
           id="g53"
           transform="translate(373.8471,272.8887)"><path
             d="m 0,0 c -14.262,-1.805 -29.241,3.383 -39.331,15.573 -1.909,2.307 -5.376,2.307 -7.285,0 -17.598,-21.265 -50.017,-21.232 -67.589,0 -1.908,2.307 -5.376,2.307 -7.285,0 -17.572,-21.232 -49.989,-21.265 -67.588,0 -1.909,2.307 -5.377,2.307 -7.285,0 C -206.453,3.383 -221.433,-1.805 -235.694,0"
             style="fill:none;stroke:#000000;stroke-width:15;stroke-linecap:round;stroke-linejoin:round;stroke-miterlimit:10;stroke-dasharray:none;stroke-opacity:1"
             id="path55" /></g><g
           id="g57"
           transform="translate(359.2353,396.9619)"><path
             d="m 0,0 c -9.293,1.958 -18.069,6.951 -24.719,14.984 -1.909,2.308 -5.376,2.308 -7.285,0 -17.599,-21.264 -50.017,-21.232 -67.589,0 -1.908,2.308 -5.376,2.308 -7.285,0 -17.572,-21.232 -49.99,-21.264 -67.588,0 -1.909,2.308 -5.377,2.308 -7.285,0 C -188.401,6.951 -197.177,1.958 -206.469,0"
             style="fill:none;stroke:#000000;stroke-width:15;stroke-linecap:round;stroke-linejoin:round;stroke-miterlimit:10;stroke-dasharray:none;stroke-opacity:1"
             id="path59" /></g><g
           id="g61"
           transform="translate(238.5,470.4429)"><path
             d="m 0,0 h -134.57 c -4.372,0 -8.034,-3.311 -8.472,-7.662 l -38.763,-329.128 c -0.24,-2.395 0.542,-4.779 2.157,-6.564 1.614,-1.786 3.908,-2.804 6.315,-2.804 h 77.852 v 30.392 c 0,34.653 28.192,62.845 62.844,62.845 34.653,0 62.845,-28.192 62.845,-62.845 0,34.653 28.192,62.845 62.844,62.845 34.653,0 62.845,-28.192 62.845,-62.845 v -30.392 h 52.436 c 2.407,0 4.702,1.018 6.316,2.804 1.614,1.785 2.397,4.169 2.156,6.564 L 178.043,-7.662 C 177.605,-3.311 173.943,0 169.572,0 H 35"
             style="fill:none;stroke:#000000;stroke-width:15;stroke-linecap:round;stroke-linejoin:round;stroke-miterlimit:10;stroke-dasharray:none;stroke-opacity:1"
             id="path63" /></g><g
           id="g65"
           transform="translate(473.0825,273.5)"><path
             d="M 0,0 -23.487,200.979 C -25.21,218.095 -39.481,231 -56.683,231 h -320.798 c -17.202,0 -31.472,-12.905 -33.196,-30.021 l -40.617,-347.547 c -1.978,-19.667 13.497,-36.704 33.196,-36.704 h 177.233 v 64.449 c 0,14.532 -11.822,26.354 -26.354,26.354 -14.531,0 -26.354,-11.822 -26.354,-26.354 v -30.392 h -36.49 v 30.392 c 0,34.653 28.192,62.844 62.844,62.844 34.653,0 62.844,-28.191 62.844,-62.844 0,34.653 28.192,62.844 62.845,62.844 34.653,0 62.844,-28.191 62.844,-62.844 v -64.449 h 62.62 c 19.766,0 35.168,17.104 33.195,36.705 L 4.091,-35"
             style="fill:none;stroke:#000000;stroke-width:15;stroke-linecap:round;stroke-linejoin:round;stroke-miterlimit:10;stroke-dasharray:none;stroke-opacity:1"
             id="path67" /></g></g></g></g></svg>
