<svg xmlns="http://www.w3.org/2000/svg" version="1.1" xmlns:xlink="http://www.w3.org/1999/xlink" width="512" height="512" x="0" y="0" viewBox="0 0 24 24" style="enable-background:new 0 0 512 512" xml:space="preserve" class=""><g><path d="M24 2v1h-3.118l-3.265-1.633c-1.28-.639-2.903-.399-3.94.579L8.489 6.863c-.548.548-.652 1.409-.232 1.993a1.505 1.505 0 0 0 2.288.195l4.648-4.477.693.721-2.108 2.03 2.387 1.79a8.523 8.523 0 0 0-1.272.296l-1.845-1.384-1.804 1.737a2.489 2.489 0 0 1-1.963.718A2.513 2.513 0 0 1 7.445 9.44c-.703-.977-.554-2.393.346-3.293l3.519-3.336-.992-.903C9.253.936 7.591.764 6.381 1.368L3.116 3.001H0v-1h2.882L5.936.473A4.513 4.513 0 0 1 7.939 0c1.156 0 2.227.415 3.054 1.168l1.046.953.951-.901c1.338-1.26 3.428-1.568 5.074-.747L21.119 2h2.882Zm0 15.5c0 3.584-2.916 6.5-6.5 6.5S11 21.084 11 17.5s2.916-6.5 6.5-6.5 6.5 2.916 6.5 6.5Zm-1 0c0-3.032-2.467-5.5-5.5-5.5S12 14.468 12 17.5s2.467 5.5 5.5 5.5 5.5-2.468 5.5-5.5Zm-6.02 1.451c-.055.057-.18.057-.241-.006l-1.856-1.8-.696.719 1.851 1.794c.221.221.514.342.825.342s.604-.121.822-.339l3.457-3.399-.701-.713-3.46 3.402Zm-7.974-1.567L3.167 13H0v1h2.833l6.261 4.701A8.485 8.485 0 0 1 9 17.5c0-.039.005-.077.006-.116Z" fill="#000000" opacity="1" data-original="#000000" class=""></path></g></svg>