<svg id="Layer_1" enable-background="new 0 0 512 512" viewBox="0 0 512 512" xmlns="http://www.w3.org/2000/svg"><path d="m498.916 309.444c-4.718-7.878-24.085-31.273-75.22-1.494l-90.154 52.511c-4.52 2.632-9.116 4.491-13.914 5.6 1.778-2.851 3.171-6.076 4.127-9.645 4.608-17.201-5.615-35.159-23.275-40.885-.343-.111-.692-.199-1.047-.263-25.912-4.673-51.486-13.919-72.035-21.348-7.138-2.581-13.88-5.018-19.613-6.877-23.079-7.487-43.947 1.781-61.313 11.836l-67.074 38.834-6.324-11.174h.001c-2.792-4.933-7.351-8.487-12.837-10.008s-11.225-.821-16.156 1.971l-25.295 14.318c-4.934 2.792-8.488 7.35-10.009 12.836s-.82 11.224 1.972 16.156l74.367 131.402c2.791 4.932 7.35 8.486 12.836 10.007 1.897.526 3.824.786 5.738.786 3.62 0 7.191-.931 10.418-2.757l25.296-14.316c4.933-2.792 8.486-7.35 10.007-12.836s.82-11.224-1.972-16.156l-7.667-13.548 15.29-8.827 115.47 30.94c6.521 1.749 12.923 2.621 19.187 2.621 12.488 0 24.426-3.469 35.661-10.386l163.61-100.744c14.913-9.183 19.645-32.325 9.925-48.554zm-364.922 160.38c-.38 1.367-1.256 2.499-2.47 3.185l-25.296 14.316c-2.485 1.409-5.778.498-7.188-1.992l-74.366-131.401c-.687-1.213-.855-2.634-.477-4.002.379-1.367 1.256-2.499 2.47-3.185l25.295-14.316c.79-.447 1.668-.675 2.562-.675.479 0 .963.065 1.44.198 1.367.379 2.498 1.256 3.185 2.469h.001l74.367 131.402c.686 1.213.856 2.634.477 4.001zm346.608-125.451-163.61 100.744c-12.973 7.988-27.212 9.984-42.317 5.935l-118.671-31.798c-2.047-.548-4.232-.261-6.07.799l-18.041 10.416-44.614-78.829 67.21-38.913c15.034-8.705 31.302-15.999 48.359-10.464 5.48 1.777 11.797 4.061 19.11 6.705 20.966 7.58 47.022 17 74.057 21.942 9.421 3.292 14.689 12.393 12.285 21.366-3.163 11.806-12.996 13.274-20.823 12.375-13.28-2.731-25.9-6.332-39.253-10.145-6.331-1.809-12.879-3.678-19.608-5.481-4.264-1.14-8.654 1.389-9.798 5.657s1.39 8.654 5.657 9.798c6.603 1.769 13.086 3.621 19.355 5.411 13.761 3.93 26.759 7.642 40.756 10.503.053.011.106.015.16.024s.104.025.158.034l11.211 1.823c16.766 2.682 31.644.07 45.479-7.987l90.155-52.511c25.951-15.115 45.931-16.652 53.441-4.111 5.176 8.642 2.861 22.121-4.588 26.707zm-421.301 13.434c.722 4.935-2.694 9.521-7.63 10.243-4.935.721-9.521-2.695-10.243-7.63-.721-4.935 2.694-9.521 7.63-10.243s9.522 2.694 10.243 7.63zm281.179-40.33c1.521 1.841 3.783 2.908 6.171 2.908s4.65-1.067 6.17-2.908l112.921-136.845c2.086-2.529 2.419-6.075.839-8.948l-37.641-68.422c-1.406-2.556-4.093-4.144-7.01-4.144h-150.558c-2.917 0-5.604 1.588-7.01 4.144l-37.64 68.422c-1.58 2.873-1.247 6.419.839 8.948zm49.908-133.936h52.21l-78.314 94.907zm-43.737 98.678-27.142-98.679h54.284zm-24.108-114.678 24.108-43.825 24.108 43.825zm37.64-52.423h48.216l-24.108 43.825zm-51.171 43.825-24.108-43.825h48.216zm-13.532 8.598h-48.216l24.108-43.824zm7.435 16 26.104 94.907-78.313-94.907zm143.125-16h-48.217l24.108-43.825zm-107.389-120.194v-31.347c0-4.418 3.582-8 8-8s8 3.582 8 8v31.347c0 4.418-3.582 8-8 8s-8-3.582-8-8zm-78.697-5.972c-2.21-3.827-.898-8.719 2.928-10.928 3.828-2.209 8.72-.896 10.928 2.928l15.673 27.147c2.21 3.827.898 8.719-2.928 10.928-1.26.727-2.636 1.073-3.992 1.073-2.766 0-5.454-1.435-6.936-4.001zm143.867 19.146 15.673-27.147c2.208-3.827 7.102-5.139 10.928-2.928 3.826 2.209 5.138 7.102 2.928 10.928l-15.673 27.147c-1.481 2.566-4.171 4.001-6.936 4.001-1.357 0-2.732-.346-3.992-1.073-3.826-2.208-5.138-7.101-2.928-10.928z"/></svg>